<svg width="18" height="19" viewBox="0 0 18 19" fill="none" xmlns="http://www.w3.org/2000/svg">
<path d="M13.3125 1C11.3159 1 9.66688 2.85449 9 3.72974C8.33312 2.85449 6.68408 1 4.68749 1C2.1028 1 0 3.37635 0 6.29689C0 7.89027 0.632461 9.37524 1.7395 10.3915C1.7556 10.4193 1.77539 10.445 1.79845 10.468L8.73524 17.3905C8.80847 17.4634 8.90406 17.5 9 17.5C9.09594 17.5 9.19188 17.4634 9.26515 17.3902L16.4326 10.2252L16.5066 10.1535C16.5652 10.0982 16.6231 10.0421 16.6879 9.97036C16.715 9.94364 16.7373 9.91359 16.7545 9.881C17.5584 8.89662 18 7.62695 18 6.29689C18 3.37635 15.8972 1 13.3125 1ZM16.1305 9.45912C16.1202 9.47121 16.1107 9.48401 16.1023 9.4972C16.0671 9.53748 16.0287 9.57299 15.9906 9.60927L8.99965 16.5951L2.41407 10.0227C2.39284 9.98095 2.36317 9.94287 2.32692 9.91102C1.32458 9.03577 0.749988 7.7185 0.749988 6.29689C0.749988 3.78979 2.51624 1.75002 4.68749 1.75002C6.83423 1.75002 8.66637 4.55008 8.68468 4.57827C8.82313 4.79213 9.17687 4.79213 9.31532 4.57827C9.33363 4.55008 11.1658 1.75002 13.3125 1.75002C15.4838 1.75002 17.25 3.78982 17.25 6.29689C17.25 7.47828 16.8523 8.60145 16.1305 9.45912Z" fill="#333333"/>
</svg>
